# xmcd CD database file generated by Grip 3.3.1
# 
# Track frame offsets:
#       150
#       21491
#       38220
#       58401
# 
# Disc length: 937 seconds
# 
# Revision: 1
# Processed by: cddbd v1.5.1PL2 Copyright (c) Steve Scherf et al.
# Submitted via: Grip 3.3.1
# 
DISCID=3603a704
DTITLE=Hunab Ku - Hunab Ku
DYEAR=2005
DGENRE=Metal
TTITLE0=Pincushion
TTITLE1=Toe Tag Serenade
TTITLE2=Pecking Out My Stained Glass Eyes
TTITLE3=Blood Circus
EXTD=
EXTT0=
EXTT1=
EXTT2=
EXTT3=
PLAYORDER=
